<svg xmlns="http://www.w3.org/2000/svg" style="display: none;">
  <defs>
    <symbol id="send" viewBox="0 0 24 24">
      <path d="m2 21 21-9L2 3v7l15 2-15 2v7Z"/>
    </symbol>
    <symbol id="arrow-right" viewBox="0 0 24 24">
      <path d="m14.2 4.8 6.5 6.5.7.7-.7.7-6.5 6.5-1.4-1.4 4.8-4.8H3v-2h14.6l-4.8-4.8 1.4-1.4Z"/>
    </symbol>
    <symbol id="chevron-right" viewBox="0 0 24 24">
      <path d="M13.6 12 7.8 6.2l1.4-1.4 6.5 6.5.7.7-.7.7-6.5 6.5-1.4-1.4 5.8-5.8Z"/>
    </symbol>
    <symbol id="bilibili" viewBox="0 0 1024 1024">
     <path d="M229.086 70.449c17.399-9.943 39.582-11.372 58.037-3.232 13.795 5.655 24.234 16.778 35.419 26.223 46.292 39.954 92.212 80.468 138.691 120.174h97.619c46.479-39.768 92.337-80.158 138.63-120.112 11.246-9.445 21.686-20.506 35.542-26.285 17.896-7.891 39.396-6.835 56.546 2.486 20.132 10.377 34.113 31.877 34.983 54.557 1.243 16.466-4.66 33.12-14.975 45.858-9.134 10.128-20.07 18.455-30.199 27.527-6.462 5.344-12.303 11.557-19.449 16.031 28.708 0 57.353-0.31 86.06 0.187 37.78 0.994 74.566 17.709 100.602 45.112 27.465 26.968 43.124 64.996 43.062 103.397 0.124 131.608 0 263.278 0.062 394.886-0.125 19.884 0.994 40.079-3.418 59.652-8.078 40.017-34.983 74.752-69.16 96.314a147.267 147.267 0 0 1-78.542 21.562H210.134c-20.63-0.124-41.57 1.056-61.889-3.48-38.96-7.83-72.825-33.554-94.45-66.3a146.956 146.956 0 0 1-23.363-81.277V393.503c0.124-20.07-1.119-40.265 2.982-59.963 12.428-64.25 71.521-116.633 137.139-119.49 29.888-0.933 59.838-0.25 89.727-0.374-14.106-10.19-26.471-22.494-39.769-33.678a66.798 66.798 0 0 1-24.917-55.738c0.87-22.121 14.168-43.186 33.555-53.811m-15.846 269.18c-25.476 4.537-47.224 24.67-54.308 49.462a92.834 92.834 0 0 0-2.858 26.347c0.124 108.057-0.063 216.115 0.062 324.235-0.497 29.391 19.822 57.229 47.473 66.612 9.88 3.604 20.506 3.666 30.82 3.728 185.917-0.124 371.895 0.062 557.812-0.062 27.278 1.056 53.5-15.907 64.996-40.39 7.022-14.043 6.897-30.012 6.649-45.36V422.21c0-11.06 0.373-22.432-2.796-33.12a71.334 71.334 0 0 0-44.74-46.914c-11.868-4.35-24.793-3.666-37.22-3.728H245.615c-10.75 0-21.624-0.373-32.312 1.18z"></path>
     <path d="M325.96 443.462c17.77-1.802 36.226 3.977 49.772 15.534 15.1 12.428 23.736 31.69 23.985 51.14 0.435 23.55 0.124 47.162 0.124 70.713 0 15.534-4.1 31.317-13.732 43.62a66.736 66.736 0 0 1-58.845 26.41 66.674 66.674 0 0 1-53.438-34.301c-8.265-14.167-8.948-30.945-8.7-46.852 0.497-22.867-1.242-45.858 1.057-68.662a67.109 67.109 0 0 1 59.776-57.602z m354.93 0a67.047 67.047 0 0 1 73.696 64.375c0.994 22.12 0.124 44.242 0.497 66.363 0.124 15.534-1.74 31.69-10.315 45.05-12.427 20.692-36.785 33.43-60.895 31.69a66.798 66.798 0 0 1-52.63-30.323c-9.632-14.292-11.496-31.877-11.061-48.654 0.435-22.742-0.808-45.485 0.746-68.165 2.237-31.07 29.018-57.664 59.963-60.274z"></path>
    </symbol>
    <symbol id="weibo" viewBox="0 0 1138 1024">
     <path d="M914.432 518.144q27.648 21.504 38.912 51.712t9.216 62.976-14.336 65.536-31.744 59.392q-34.816 48.128-78.848 81.92t-91.136 56.32-94.72 35.328-89.6 18.944-75.264 7.68-51.712 1.536-49.152-2.56-68.096-10.24-78.336-21.504-79.872-36.352-74.24-55.296-59.904-78.848q-16.384-29.696-22.016-63.488t-5.632-86.016q0-22.528 7.68-51.2t27.136-63.488 53.248-75.776 86.016-90.112q51.2-48.128 105.984-85.504t117.248-57.856q28.672-10.24 63.488-11.264t57.344 11.264q10.24 11.264 19.456 23.04t12.288 29.184q3.072 14.336 0.512 27.648t-5.632 26.624-5.12 25.6 2.048 22.528q17.408 2.048 33.792-1.536t31.744-9.216 31.232-11.776 33.28-9.216q27.648-5.12 54.784-4.608t49.152 7.68 36.352 22.016 17.408 38.4q2.048 14.336-2.048 26.624t-8.704 23.04-7.168 22.016 1.536 23.552q3.072 7.168 14.848 13.312t27.136 12.288 32.256 13.312 29.184 16.384zM656.384 836.608q26.624-16.384 53.76-45.056t44.032-64 18.944-75.776-20.48-81.408q-19.456-33.792-47.616-57.344t-62.976-37.376-74.24-19.968-80.384-6.144q-78.848 0-139.776 16.384t-105.472 43.008-72.192 60.416-38.912 68.608q-11.264 33.792-6.656 67.072t20.992 62.976 42.496 53.248 57.856 37.888q58.368 25.6 119.296 32.256t116.224 0.512 100.864-21.504 74.24-33.792zM522.24 513.024q20.48 8.192 38.912 18.432t32.768 27.648q10.24 12.288 17.92 30.72t10.752 39.424 1.536 42.496-9.728 38.912q-8.192 18.432-19.968 37.376t-28.672 35.328-40.448 29.184-57.344 18.944q-61.44 11.264-117.76-11.264t-88.064-74.752q-12.288-39.936-13.312-70.656t16.384-66.56q13.312-27.648 40.448-51.712t62.464-38.912 75.264-17.408 78.848 12.8zM359.424 764.928q37.888 3.072 57.856-18.432t21.504-48.128-15.36-47.616-52.736-16.896q-27.648 3.072-43.008 23.552t-17.408 43.52 9.728 42.496 39.424 21.504zM778.24 6.144q74.752 0 139.776 19.968t113.664 57.856 76.288 92.16 27.648 122.88q0 33.792-16.384 50.688t-35.328 17.408-35.328-14.336-16.384-45.568q0-40.96-22.528-77.824t-59.392-64.512-84.48-43.52-96.768-15.872q-31.744 0-47.104-15.36t-14.336-34.304 18.944-34.304 51.712-15.36zM778.24 169.984q95.232 0 144.384 48.64t49.152 146.944q0 30.72-10.24 43.52t-22.528 11.264-22.528-14.848-10.24-35.84q0-60.416-34.816-96.256t-93.184-35.84q-19.456 0-28.672-10.752t-9.216-23.04 9.728-23.04 28.16-10.752z"></path>
    </symbol>
    <symbol id="menu" viewBox="0 0 24 24">
      <path d="M22 6H2V4h20v2ZM2 13h16v-2H2v2Zm0 7h20v-2H2v2Z"/>
    </symbol>
    <symbol id="zcool" viewBox="0 0 1024 1024">
     <path d="M964.168123 471.401814c-28.194361 15.635311-68.467988 23.396522-102.109308 27.234793 53.340683-45.353692 105.157346-97.00102 126.098504-161.99763 28.420142-88.167351 29.266819-169.899953 2.681145-257.192404-2.427142-7.732988-9.031227-13.43395-17.102885-14.478186-7.422539-1.298239-15.211973 2.144916-19.784031 8.607888-70.471791 100.38773-163.690985 164.396549-265.546289 183.333903 30.452168-61.243006 64.00882-130.388336 56.783838-202.666372a20.678687 20.678687 0 0 0-14.054847-17.554447c-1.778023-0.649119-4.120497-1.072458-6.604084-1.072459-5.813852 0-11.03503 2.370697-14.816857 6.208969-108.007827 109.955186-194.171375 133.182372-298.284486 134.988617-114.950583 1.975581-224.70821 54.94937-301.106744 145.402751C34.572665 411.880385 1.044236 527.50831 18.344679 639.495521c27.771022 180.201196 162.251633 315.0487 342.593942 343.55351a434.091558 434.091558 0 0 0 67.50842 5.334069c148.112119 0 281.012265-78.317669 356.959237-214.406968 8.664333-15.494198 22.888515-30.677948 39.003611-41.712978 73.322272-50.151531 126.380729-115.091696 157.594907-193.042472 4.318055-10.781027 7.478985-24.045641 10.27302-35.758014l2.144916-8.833668c0.395116-1.52402 0.649119-3.27382 0.64912-5.080065a20.715376 20.715376 0 0 0-8.071659-16.397321 20.800044 20.800044 0 0 0-12.728385-4.318056c-3.697158 0-7.168536 0.959568-10.188353 2.624701l0.084668-0.056445z m-903.263788 137.443982c17.385111 54.72359 124.376926 73.040046 124.376926 73.040046-89.268032 95.956784-124.376926-73.040046-124.376926-73.040046z m258.321308 73.040046s218.329907-25.23099 305.311909-100.444175c0 0-126.691178 288.886366-305.311909 100.444175z m0 0"></path>
    </symbol>
    <symbol id="copy" viewBox="0 0 24 24">
      <path d="M3 2h12v4H7v10H3V2Zm6 20V8h12v11l-3 3H9Z"/>
    </symbol>
    <symbol id="error" viewBox="0 0 24 24">
      <path d="M19.7 19H4.3L12 5l7.7 14ZM11.1 2.5l-9.4 17 1 1.5h18.7l.9-1.5-9.4-17H11ZM11 14v-4h2v4h-2Zm0 3v-2h2v2h-2Z"/>
    </symbol>
    <symbol id="arrow-left" viewBox="0 0 24 24">
      <path d="m9.8 19.2-6.5-6.5-.7-.7.7-.7 6.5-6.5 1.4 1.4L6.4 11H21v2H6.4l4.8 4.8-1.4 1.4Z"/>
    </symbol>
    <symbol id="check" viewBox="0 0 24 24">
      <path d="m20.2 7.2-10 10-.7.7-.7-.7-5-5 1.4-1.4L9.5 15l9.3-9.3 1.4 1.4Z"/>
    </symbol>
    <symbol id="link" viewBox="0 0 24 24">
      <path d="M9 4 8 5v2h2V6h10v7H10v-2H8v3l1 1h12l1-1V5l-1-1H9Zm2 4H3L2 9v9l1 1h12l1-1v-2h-2v1H4v-7h10v2h2V9l-1-1h-4Z"/>
    </symbol>
    <symbol id="close" viewBox="0 0 24 24">
      <path d="M19 6.4 17.6 5 12 10.6 6.4 5 5 6.4l5.6 5.6L5 17.6 6.4 19l5.6-5.6 5.6 5.6 1.4-1.4-5.6-5.6L19 6.4Z"/>
    </symbol>
    <symbol id="pause" viewBox="0 0 24 24">
      <path d="M6 19h4V5H6v14Zm8-14v14h4V5h-4Z"/>
    </symbol>
    <symbol id="play" viewBox="0 0 24 24">
      <path d="M8 5v14l11-7L8 5Z"/>
    </symbol>
  </defs>
</svg>